<?xml version="1.0" encoding="utf-8"?>
<!-- Generator: Adobe Illustrator 18.1.1, SVG Export Plug-In . SVG Version: 6.00 Build 0)  -->
<svg version="1.1" width="80" height="80" id="Layer_1" xmlns="http://www.w3.org/2000/svg" xmlns:xlink="http://www.w3.org/1999/xlink" x="0px" y="0px"
	 viewBox="0 0 960 560" enable-background="new 0 0 960 560" xml:space="preserve">
<circle fill="#3AAFA9" cx="488.9" cy="283" r="266.4"/>
<g>
	<path fill="#FFFFFF" d="M559.4,321.4c-4.7,1.7-9.4,3.6-14.2,5.2c-31.7,11-58.1,21.5-97.3,24.1s-84.2-6.3-100.2-10.6
		c-27.7-7.4-53.6-18.6-77.2-35c-6.5-4.5-7.4-10.8-8-17.5c-0.5-5.7-1.8-11.4-1.2-17.3c0.1-1.4-0.7-3.3,0.6-4c1.7-0.9,2.8,1.1,4,2
		c59.9,44.1,117.3,46.4,140.4,48.8c20.3,2.1,40.6,3,60.9,4.1c18.5,1,36.9-0.3,55.4-0.5c6.7-0.1,13.4-1.3,20.1-1.5
		c5.5-0.1,11,0.6,16.5,0.9C559.3,320.6,559.4,321,559.4,321.4z"/>
	<path fill="#FFFFFF" d="M619.7,438.7c-4.8,5.9-10.2,10.4-15.9,14.5c-19.1,13.7-40.7,21.6-63.4,26.9c-22.7,5.3-45.7,7-68.9,5.5
		c-26.3-1.6-51.7-7.4-75.5-19.1c-4.7-2.3-9.4-4.7-14.7-8.9c6.8-0.6,12.4-1.4,18-1.6c22.5-1,44.9-2.1,67.4-2.2
		c18.6-0.1,37.3-0.8,55.8-1.9c31.8-2,63.5-5.2,94.5-13.3C617.7,438.6,618.4,438.7,619.7,438.7z"/>
	<path fill="#FFFFFF" d="M581.2,403.4c-10.3,5.1-21,8.6-31.8,11.9c-23,7-46.6,11.8-70.3,15.3c-28.5,4.2-57.3,5.2-86,3.8
		c-19.2-0.9-38.3-3.6-56.2-11.5c-6-2.6-11.6-5.9-16.4-12.7C408.3,415.3,494.8,412.3,581.2,403.4z"/>
	<path fill="#FFFFFF" d="M568.2,362.3c-20.2,8.6-40.9,15.1-62,20.3c-16,3.9-32.3,6.9-48.7,8.4c-18.6,1.8-37.2,1.9-55.8,0.4
		c-27.4-2.1-53.7-8.5-79.3-18.3c-1-0.4-2.1-0.8-3.1-1.2c-0.2-0.1-0.4-0.5-0.7-0.9c2.8-1.8,5.6,0.1,8.3,0c28.6,0,57.3,0.2,85.9-0.1
		c19.1-0.2,38.2-0.8,57.3-1.9c22.9-1.3,45.8-2.2,68.6-4.5C548.6,363.5,558.4,363,568.2,362.3z"/>
	<path fill="#FFFFFF" d="M544.8,346.3c12.3-5,24.6-10,36.9-14.9c37.5-14.9,74.4-30.9,109.1-51.5c5.1-3,10.1-6.2,15-9.5
		c2.8-1.9,5.6-2.6,8.5-0.8c2.9,1.8,1.3,4.4,0.9,6.9c-0.4,2.7-0.3,5.4-0.1,8.2c0.7,9.9-3.9,16.7-12.6,20.7
		c-20.1,9.3-40.5,17.9-61.8,24.1c-28.6,8.3-57.9,13.5-87.3,18.1c-2.8,0.4-5.6,0.1-8.5,0.1C545,347.2,544.9,346.8,544.8,346.3z"/>
	<path fill="#FFFFFF" d="M550.5,388c7.7-2.6,15.3-5.1,23-7.8c23.8-8.5,46.4-19.4,69.2-30.3c19-9.1,37.9-18.1,57.4-26
		c3.6-1.5,4.7-1.1,4.6,3c-0.2,12.9-8.8,24.7-22.9,30.5c-29.3,12.1-59.8,20-90.8,26c-10.4,2-20.8,3.7-31.2,5.5
		C556.8,389.6,553.7,389.3,550.5,388z"/>
	<path fill="#FFFFFF" d="M564.3,430.3c8.2-4.8,17-8.2,25.8-11.4c25.6-9.2,50.1-20.7,74.3-33c1.1-0.6,2.3-1.2,3.5-1.7
		c2-0.9,4.1-1.1,5.7,0.7c1.6,1.8,1.4,3.9,0.2,5.8c-7,10.7-15.2,20.2-28.2,23.5c-23.1,5.8-46.2,11.9-69.7,16.2
		C572.2,431.1,568.3,430.7,564.3,430.3z"/>
	<path fill="#FFFFFF" d="M335.5,353.3c-17.1,0.2-33.8-1-49.4-8.6c-6.3-3.1-11-7.8-12.9-14.8c-0.2-0.9-0.3-2,0.1-2.8
		c0.5-1,1.4-0.2,2,0.1C294.1,339,314.6,346.8,335.5,353.3z"/>
</g>
</svg>
