<?xml version="1.0" encoding="utf-8"?>
<!-- Generator: Adobe Illustrator 18.1.1, SVG Export Plug-In . SVG Version: 6.00 Build 0)  -->
<svg version="1.1" width="60" height="60" id="Layer_1" xmlns="http://www.w3.org/2000/svg" xmlns:xlink="http://www.w3.org/1999/xlink" x="0px" y="0px"
	 viewBox="0 0 960 560" enable-background="new 0 0 960 560" xml:space="preserve">
<g>
	<path fill="#3AAFA9" d="M628.7,164.1c-10,3.7-19.9,7.5-29.9,11c-66.9,23.2-122.6,45.4-205.5,50.9c-82.8,5.5-177.7-13.3-211.5-22.3
		c-58.5-15.6-113.1-39.3-163-73.9C5.1,120.3,3.2,107,2,92.8C1,80.6-1.7,68.6-0.6,56.3c0.3-2.9-1.5-7,1.3-8.5c3.5-1.9,6,2.3,8.4,4.2
		c126.4,93.1,247.7,98,296.5,103.1c42.8,4.5,85.7,6.4,128.6,8.7c39.1,2.1,77.9-0.6,116.9-1.1c14.2-0.2,28.3-2.8,42.4-3.1
		c11.6-0.3,23.2,1.2,34.8,1.9C628.5,162.4,628.6,163.3,628.7,164.1z"/>
	<path fill="#3AAFA9" d="M755.9,411.8c-10.2,12.5-21.5,22-33.6,30.6c-40.4,28.9-86,45.6-133.9,56.8c-47.9,11.2-96.5,14.7-145.4,11.7
		c-55.5-3.4-109.2-15.6-159.5-40.2c-9.9-4.9-19.9-10-31-18.7c14.4-1.3,26.2-2.9,38.1-3.4c47.4-2.2,94.8-4.3,142.4-4.6
		c39.3-0.2,78.6-1.6,117.9-4.1c67.2-4.3,134.1-11,199.6-28.1C751.7,411.5,753.1,411.8,755.9,411.8z"/>
	<path fill="#3AAFA9" d="M674.6,337.3c-21.6,10.7-44.3,18.3-67.2,25.2c-48.6,14.8-98.3,24.9-148.5,32.3c-60.2,8.8-121,10.9-181.6,8
		c-40.6-1.9-80.9-7.6-118.7-24.3c-12.6-5.5-24.4-12.5-34.7-26.7C309.7,362.3,492.2,356,674.6,337.3z"/>
	<path fill="#3AAFA9" d="M647.3,250.4c-42.6,18.1-86.2,32-130.9,42.9c-33.8,8.3-68.1,14.5-102.7,17.8c-39.2,3.7-78.4,3.9-117.8,0.9
		c-57.8-4.4-113.4-17.9-167.4-38.7c-2.2-0.9-4.4-1.7-6.6-2.6c-0.5-0.2-0.8-1-1.4-1.8c6-3.9,11.8,0.1,17.6,0.1
		c60.4-0.1,120.9,0.4,181.3-0.2c40.3-0.4,80.6-1.8,120.9-4.1c48.3-2.8,96.6-4.7,144.8-9.5C605.8,253,626.5,251.9,647.3,250.4z"/>
	<path fill="#3AAFA9" d="M597.9,216.7c26-10.5,51.9-21.1,77.9-31.5c79.1-31.4,157-65.3,230.4-108.8c10.8-6.4,21.3-13.2,31.8-20.2
		c5.9-3.9,11.9-5.5,18-1.7c6.1,3.8,2.8,9.3,2,14.6c-0.9,5.6-0.6,11.5-0.2,17.2c1.4,20.9-8.3,35.2-26.6,43.8
		c-42.4,19.7-85.4,37.9-130.4,50.9c-60.4,17.5-122.3,28.5-184.3,38.3c-5.8,0.9-11.9,0.1-17.9,0.1
		C598.3,218.6,598.1,217.6,597.9,216.7z"/>
	<path fill="#3AAFA9" d="M609.9,304.8c16.2-5.5,32.4-10.7,48.5-16.4c50.2-17.9,98.1-41,146-63.9c40-19.1,80-38.3,121.2-54.9
		c7.7-3.1,9.8-2.4,9.7,6.4c-0.3,27.2-18.5,52.2-48.2,64.5c-61.8,25.5-126.2,42.3-191.7,55c-21.9,4.2-43.9,7.9-65.8,11.6
		C623.1,308,616.6,307.5,609.9,304.8z"/>
	<path fill="#3AAFA9" d="M639.1,394c17.4-10,35.8-17.4,54.4-24.1c54-19.3,105.8-43.8,156.8-69.7c2.4-1.2,4.8-2.5,7.3-3.6
		c4.3-2,8.6-2.4,12.1,1.5c3.5,3.8,3,8.3,0.4,12.2c-14.8,22.5-32,42.7-59.4,49.6c-48.8,12.3-97.5,25.2-147.1,34.1
		C655.6,395.6,647.5,394.9,639.1,394z"/>
	<path fill="#3AAFA9" d="M156,231.4c-36,0.3-71.4-2-104.2-18.1c-13.4-6.5-23.1-16.5-27.2-31.2c-0.5-1.8-0.7-4.2,0.1-5.8
		c1-2,2.9-0.5,4.3,0.3C68.6,201.3,111.8,217.6,156,231.4z"/>
</g>
</svg>
